<?xml version="1.0" encoding="UTF-8" standalone="no"?>
<!-- Created with Inkscape (http://www.inkscape.org/) -->

<svg
   width="150mm"
   height="150mm"
   viewBox="0 0 150 150"
   version="1.1"
   id="svg5"
   sodipodi:docname="logo.svg"
   inkscape:version="1.1.2 (b8e25be833, 2022-02-05)"
   xmlns:inkscape="http://www.inkscape.org/namespaces/inkscape"
   xmlns:sodipodi="http://sodipodi.sourceforge.net/DTD/sodipodi-0.dtd"
   xmlns="http://www.w3.org/2000/svg"
   xmlns:svg="http://www.w3.org/2000/svg"
   xmlns:rdf="http://www.w3.org/1999/02/22-rdf-syntax-ns#"
   xmlns:cc="http://creativecommons.org/ns#"
   xmlns:dc="http://purl.org/dc/elements/1.1/">
  <title
     id="title37060">logo</title>
  <sodipodi:namedview
     id="namedview7"
     pagecolor="#ffffff"
     bordercolor="#666666"
     borderopacity="1.0"
     inkscape:pageshadow="2"
     inkscape:pageopacity="0.0"
     inkscape:pagecheckerboard="0"
     inkscape:document-units="px"
     showgrid="false"
     inkscape:object-paths="false"
     inkscape:snap-nodes="false"
     inkscape:zoom="0.70710678"
     inkscape:cx="258.09398"
     inkscape:cy="289.91378"
     inkscape:window-width="1920"
     inkscape:window-height="1027"
     inkscape:window-x="-8"
     inkscape:window-y="-8"
     inkscape:window-maximized="1"
     inkscape:current-layer="layer1"
     units="mm"
     width="200mm" />
  <defs
     id="defs2">
    <rect
       x="146"
       y="630"
       width="356"
       height="75"
       id="rect9188" />
  </defs>
  <g
     inkscape:label="Layer 1"
     inkscape:groupmode="layer"
     id="layer1">
    <path
       id="path2584"
       style="opacity:1;fill:#1a1a1a;fill-rule:evenodd;stroke-width:1.76898"
       d="m 57.358296,12.034413 c -14.471649,5.66e-4 -24.516754,10.643471 -29.730485,20.967195 -5.18112,10.259143 -7.411831,22.239314 -7.411951,34.261473 1.2e-4,12.022132 2.230831,24.002862 7.411951,34.261989 5.213731,10.32372 15.258814,20.96624 29.730485,20.96668 h 36.490278 c 14.471646,-5.6e-4 24.516746,-10.64295 29.730476,-20.96668 5.18111,-10.259137 7.41185,-22.239857 7.41195,-34.261989 -1e-4,-12.022164 -2.23084,-24.00233 -7.41195,-34.261473 C 118.36532,22.677889 108.32024,12.034841 93.848574,12.034413 Z m 0,1.851566 h 6.614584 c -3.235219,9e-5 -6.232438,0.584049 -8.999969,1.5875 h -6.614583 c 2.76752,-1.003451 5.764747,-1.58741 8.999968,-1.5875 z m 9.513631,0 h 5.820833 c -13.559448,4.02e-4 -23.062085,10.018952 -28.077355,19.949687 -5.015262,9.930735 -7.213404,21.635346 -7.213513,33.427415 1.09e-4,11.79205 2.198251,23.497204 7.213513,33.427939 5.01527,9.93072 14.517907,19.94875 28.077355,19.94916 H 66.871927 C 53.312473,120.63977 43.809831,110.62174 38.794572,100.69102 33.779302,90.760285 31.581694,79.055131 31.581575,67.263081 31.581694,55.471015 33.779302,43.766401 38.794572,33.835666 43.809831,23.904931 53.312473,13.886381 66.871927,13.885979 Z m 11.641667,0 h 5.820833 c -13.559451,4.05e-4 -23.062602,10.018952 -28.077874,19.949687 -5.015259,9.930735 -7.21237,21.635343 -7.212478,33.427415 1.08e-4,11.79205 2.197219,23.497204 7.212478,33.427939 5.015272,9.93072 14.518423,19.94875 28.077874,19.94916 H 78.513594 C 64.954145,120.63977 55.450981,110.62174 50.43572,100.69102 45.42045,90.760285 43.222845,79.055131 43.222726,67.263081 43.222845,55.471012 45.42045,43.766401 50.43572,33.835666 55.450981,23.904931 64.954145,13.886384 78.513594,13.885979 Z m 8.720396,0 h 6.614584 c -3.244329,9e-5 -6.253888,0.578779 -9.027872,1.5875 h -6.614583 c 2.773984,-1.008721 5.78354,-1.58741 9.027871,-1.5875 z m -48.352603,7.303947 h 6.614583 c -0.731808,0.643247 -1.444299,1.306154 -2.119249,2.003495 h -6.614583 c 0.67496,-0.697341 1.38743,-1.360248 2.119249,-2.003495 z m 29.860192,0 h 6.614583 c -0.728879,0.641096 -1.43234,1.308728 -2.104779,2.003495 H 66.6368 c 0.672436,-0.694767 1.375902,-1.362399 2.104779,-2.003495 z m -36.292874,7.303947 h 6.614583 c -0.54764,0.795964 -1.057447,1.604917 -1.544609,2.418974 h -6.614583 c 0.487151,-0.814057 0.996979,-1.62301 1.544609,-2.418974 z m 29.872595,0 h 6.614584 c -0.547937,0.796435 -1.066528,1.604433 -1.553912,2.418974 h -6.614583 c 0.487381,-0.814541 1.005975,-1.622539 1.553911,-2.418974 z m 33.908008,2.229838 A 18.453406,36.53976 0 0 1 114.68296,67.263081 18.453406,36.53976 0 0 1 96.229308,103.80297 18.453406,36.53976 0 0 1 77.775655,67.263081 18.453406,36.53976 0 0 1 96.229308,30.723711 Z m 0,3.82664 a 16.52086,32.713109 0 0 0 -9.260417,5.641 16.52086,32.713109 0 0 1 7.26054,27.07173 16.52086,32.713109 0 0 1 -7.26054,27.072251 16.52086,32.713109 0 0 0 9.260417,5.640999 16.52086,32.713109 0 0 0 16.520952,-32.71325 16.52086,32.713109 0 0 0 -16.520952,-32.71273 z M 28.337844,35.79782 h 6.614584 c -0.426099,0.930278 -0.822034,1.878061 -1.201995,2.834969 H 27.13585 c 0.379952,-0.956908 0.775904,-1.904691 1.201994,-2.834969 z m 29.875181,0 h 6.614583 c -0.426691,0.931591 -0.830876,1.876674 -1.211297,2.834969 h -6.614583 c 0.380421,-0.958295 0.784606,-1.903376 1.211297,-2.834969 z m -32.663123,7.304464 h 6.614582 c -0.33605,1.071602 -0.645562,2.155563 -0.93069,3.250448 h -6.614585 c 0.28513,-1.094885 0.594633,-2.178846 0.930693,-3.250448 z m 29.871044,0 h 6.614583 c -0.336005,1.071557 -0.64612,2.155613 -0.931209,3.250448 h -6.614583 c 0.28508,-1.094835 0.595199,-2.178891 0.931209,-3.250448 z m -31.735013,7.303947 h 6.614582 c -0.243509,1.213017 -0.463248,2.434741 -0.650089,3.666442 h -6.614583 c 0.18684,-1.231701 0.40659,-2.453425 0.65009,-3.666442 z m 29.87156,0 h 6.614584 c -0.243399,1.212577 -0.459185,2.435193 -0.645954,3.666442 H 52.91154 c 0.186769,-1.231249 0.402563,-2.453865 0.645953,-3.666442 z m -30.985187,7.303947 h 6.614584 c -0.14437,1.353489 -0.242861,2.7163 -0.324012,4.08192 h -6.614584 c 0.0812,-1.36562 0.179652,-2.728431 0.324012,-4.08192 z m 29.875694,0 h 6.614583 c -0.144438,1.35418 -0.25577,2.715591 -0.336928,4.08192 h -6.614583 c 0.0812,-1.366319 0.19249,-2.72774 0.336928,-4.08192 z m -30.327346,7.303945 h 6.614584 c -0.018,0.749752 -0.05323,1.49806 -0.05323,2.248958 1.1e-5,0.75089 0.03523,1.499201 0.05323,2.248958 h -6.614584 c -0.018,-0.749757 -0.05323,-1.498068 -0.05323,-2.248958 0,-0.750898 0.03523,-1.499206 0.05323,-2.248958 z m 29.849858,0 h 6.614583 c -0.0179,0.74899 -0.02739,1.498819 -0.02739,2.248958 0,0.750131 0.009,1.49996 0.02739,2.248958 h -6.614583 c -0.0179,-0.748998 -0.02739,-1.498827 -0.02739,-2.248958 1.1e-5,-0.750139 0.009,-1.499968 0.02739,-2.248958 z m -29.722218,7.719943 h 6.614584 c 0.0811,1.365639 0.179642,2.728413 0.324012,4.08192 h -6.614584 c -0.14436,-1.353507 -0.242862,-2.716281 -0.324012,-4.08192 z m 29.862778,0 h 6.614583 c 0.0812,1.36634 0.19249,2.727722 0.336928,4.08192 H 52.448 c -0.144438,-1.354198 -0.25577,-2.71558 -0.336928,-4.08192 z m -29.075229,7.719425 h 6.614583 c 0.186841,1.231742 0.40658,2.453402 0.650089,3.666443 h -6.614582 c -0.2435,-1.213041 -0.46325,-2.434701 -0.65009,-3.666443 z m 29.875697,0 h 6.614583 c 0.186769,1.231281 0.402555,2.453833 0.645954,3.666443 h -6.614584 c -0.24339,-1.21261 -0.459184,-2.435162 -0.645953,-3.666443 z m -28.292331,7.719944 h 6.614585 c 0.285099,1.094788 0.59468,2.178936 0.93069,3.250446 h -6.614582 c -0.33601,-1.07151 -0.645593,-2.155658 -0.930693,-3.250446 z m 29.870528,0 h 6.614583 c 0.285089,1.094888 0.595199,2.178836 0.931209,3.250446 h -6.614583 c -0.33601,-1.07161 -0.646129,-2.155558 -0.931209,-3.250446 z M 27.13585,95.893376 h 6.614583 c 0.379953,0.956929 0.775904,1.90468 1.201995,2.834968 h -6.614584 c -0.42609,-0.930288 -0.822042,-1.878039 -1.201994,-2.834968 z m 29.865878,0 h 6.614583 c 0.380389,0.958249 0.784125,1.903428 1.210779,2.834968 h -6.614584 c -0.426659,-0.93154 -0.830386,-1.876719 -1.210778,-2.834968 z m -26.097632,7.719944 h 6.614583 c 0.487101,0.81397 0.996522,1.62308 1.544093,2.41897 h -6.614583 c -0.547579,-0.79589 -1.056992,-1.605 -1.544093,-2.41897 z m 29.863293,0 h 6.614583 c 0.487328,0.81446 1.005526,1.62261 1.553396,2.41897 h -6.614584 c -0.54787,-0.79636 -1.066064,-1.60451 -1.553395,-2.41897 z m -24.005251,7.71942 h 6.614583 c 0.674899,0.69726 1.387499,1.36031 2.119249,2.0035 h -6.614583 c -0.73175,-0.64319 -1.44435,-1.30624 -2.119249,-2.0035 z m 29.874662,0 h 6.614583 c 0.672402,0.69471 1.375939,1.36245 2.104779,2.0035 h -6.614583 c -0.728837,-0.64105 -1.43238,-1.30879 -2.104779,-2.0035 z m -18.278472,7.71994 h 6.614583 c 2.767531,1.0034 5.76475,1.5874 8.999969,1.5875 h -6.614584 c -3.235221,-1e-4 -6.232448,-0.5841 -8.999968,-1.5875 z m 29.847791,0 h 6.614583 c 2.773984,1.00868 5.783543,1.5874 9.027872,1.5875 H 87.23399 c -3.244331,-1e-4 -6.253887,-0.57882 -9.027871,-1.5875 z m -6.637838,5.47305 1.946135,2.40916 h 2.657718 l 1.827795,-2.40916 h -2.036567 l -0.60358,1.57407 -0.609783,-1.57407 z m 1.827795,2.71405 c -1.515854,0 -2.70623,0.25199 -3.571359,0.75603 -0.861364,0.50403 -1.29191,1.20003 -1.29191,2.08772 0,0.94412 0.643191,1.6737 1.929598,2.18902 0.808707,0.32348 2.190578,0.55869 4.146518,0.70538 l 1.681549,0.12971 c 0.778616,0.0602 1.269661,0.12401 1.472779,0.19172 0.206878,0.0639 0.31006,0.19212 0.31006,0.38395 0,0.41 -0.765603,0.61495 -2.296501,0.61495 -1.455671,0 -2.787171,-0.22226 -3.994589,-0.6661 -1.203656,-0.44385 -2.149213,-1.06064 -2.837553,-1.85054 v 3.8592 l 2.00298,-0.74466 c 1.752822,0.55293 3.463981,0.82941 5.134052,0.82941 1.557229,0 2.796572,-0.24623 3.718121,-0.73898 0.925308,-0.4965 1.388028,-1.16225 1.388028,-1.99729 0,-0.93283 -0.583206,-1.6778 -1.749248,-2.23449 -0.695862,-0.33101 -2.070558,-0.57916 -4.124296,-0.74466 l -1.636075,-0.1297 c -0.925311,-0.0752 -1.555557,-0.16214 -1.890323,-0.25994 -0.334767,-0.0978 -0.50178,-0.24225 -0.50178,-0.43408 0,-0.41 0.688311,-0.61495 2.064991,-0.61495 2.283182,0 4.434501,0.65806 6.454386,1.97456 v -3.25562 l -2.161109,0.66611 -0.321426,-0.11317 c -1.158518,-0.40247 -2.467462,-0.60358 -3.926893,-0.60358 z m 58.593314,0.13539 c -1.97474,0 -3.74064,0.44208 -5.29787,1.32602 -1.55722,0.88017 -2.33577,1.87854 -2.33577,2.99568 0,1.09834 0.77329,2.04441 2.31924,2.83807 1.54594,0.79366 3.38861,1.19063 5.52886,1.19063 1.8619,0 3.36286,-0.2861 4.50257,-0.85783 1.14347,-0.5755 1.71514,-1.32956 1.71514,-2.2624 0,-0.40623 -0.19726,-0.72013 -0.59221,-0.94206 0.0113,0.0451 0.0171,0.0806 0.0171,0.10697 0.0451,0.64321 -0.38977,1.18706 -1.3038,1.63091 -0.91026,0.44385 -2.04975,0.66559 -3.41891,0.66559 -1.45191,0 -2.50309,-0.20111 -3.15381,-0.60358 -0.64697,-0.40247 -0.97048,-1.05528 -0.97048,-1.95802 0,-1.80172 1.20191,-2.70267 3.60546,-2.70267 2.39979,0 4.19401,0.77137 5.38262,2.31355 v -3.61115 l -1.45573,0.84078 c -1.32026,-0.64697 -2.83467,-0.97049 -4.54236,-0.97049 z m -70.419464,0.25373 -1.41025,0.006 h -9.332249 l 2.826703,1.79989 v 4.11344 l -2.578656,1.63143 -2.657202,-1.6428 -3.221509,-4.49688 1.84485,-1.40508 h -9.106421 l 1.805575,1.40508 -3.170867,4.49688 -1.991609,1.58079 -2.482535,-1.58079 v -4.10776 l 2.8267,-1.7942 h -8.632548 l -1.461409,3.49849 -1.545643,-3.49849 h -7.893574 l 2.826701,1.7942 v 4.10776 l -2.826701,1.79989 h 7.65638 l -2.652035,-1.79989 v -4.74544 l 2.889229,6.54533 h 2.081527 l 2.877859,-6.79338 v 4.99349 l -2.669086,1.79989 h 9.3493 6.573242 l -2.324923,-1.58026 0.344165,-0.5302 h 4.434871 l 0.349851,0.5302 -2.674255,1.58026 h 9.704316 9.129159 l -2.826702,-1.78852 v -1.1684 h 1.872755 c 0.84632,0 1.386332,0.1656 1.619538,0.49661 0.372383,0.52283 0.791906,1.34317 1.258322,2.46031 h 5.461682 l -1.867585,-1.11724 c -0.36486,-0.79366 -0.750803,-1.36533 -1.157036,-1.71514 -0.402474,-0.35358 -0.981316,-0.6248 -1.737363,-0.81287 2.230525,-0.25954 3.345532,-0.87825 3.345532,-1.85622 0,-0.50779 -0.282244,-0.9532 -0.84646,-1.33687 -0.564214,-0.38743 -1.299562,-0.6375 -2.206067,-0.75034 z m 23.09368,0.006 1.805056,1.40508 -3.170865,4.49688 -2.268079,1.79989 h 7.193878 l -2.324407,-1.58026 0.344164,-0.5302 h 4.434356 l 0.349848,0.5302 -2.674255,1.58026 h 9.704319 7.278619 l -2.83239,-1.79989 v -2.57865 l 4.85242,4.37854 h 3.98322 v -5.90765 l 2.80448,-1.77973 2.80396,1.77973 v 4.10776 l -2.8267,1.79989 h 9.49555 l -2.82102,-1.79989 v -4.10776 l 2.82102,-1.7942 h -9.45059 -7.89357 l 2.83238,1.7942 v 2.3642 l -4.79557,-4.1584 h -6.866759 l 2.826699,1.7942 v 4.10776 l -2.523876,1.60714 -2.598808,-1.60714 -3.222025,-4.49688 1.845366,-1.40508 z m -27.031426,1.44435 h 2.533179 c 0.808707,0 1.352047,0.0644 1.630391,0.19224 0.278345,0.12413 0.417547,0.36843 0.417547,0.73329 0,0.56045 -0.424778,0.84077 -1.274857,0.84077 l -0.78445,0.0114 h -2.52181 z m -16.006773,0.79014 1.450038,2.08772 h -2.810163 z m 46.727895,0 1.450041,2.08772 h -2.809647 z" />
  </g>
  <metadata
     id="metadata37058">
    <rdf:RDF>
      <cc:Work
         rdf:about="">
        <dc:title>logo</dc:title>
      </cc:Work>
    </rdf:RDF>
  </metadata>
</svg>
